<svg xmlns="http://www.w3.org/2000/svg" viewBox="0 0 293.794 194.171">
  <g id="Group_6" data-name="Group 6" transform="translate(-231.565 -1373.45)">
    <path id="Path_1097" data-name="Path 1097" d="M468.146,1468.233c-20.421-14.029-52.515-30.752-89.443-30.752s-69.021,16.723-89.442,30.752c-21.99,15.107-35.226,30.059-35.778,30.688l-3.19,3.63,3.19,3.63c.552.629,13.788,15.581,35.778,30.688,20.421,14.029,52.515,30.752,89.442,30.752s69.022-16.723,89.443-30.752c21.99-15.107,35.225-30.059,35.778-30.688l3.189-3.63-3.189-3.63C503.371,1498.292,490.136,1483.34,468.146,1468.233Zm-35.372,34.318a54.07,54.07,0,1,1-54.071-54.07A54.132,54.132,0,0,1,432.774,1502.551Zm-167.575,0c8.711-8.809,33.235-31.513,66.122-44.526a64.9,64.9,0,0,0-.033,89.026C298.449,1534.025,273.915,1511.346,265.2,1502.547Zm160.887,44.534a64.9,64.9,0,0,0,.032-89.025c32.842,13.022,57.377,35.7,66.089,44.5C483.5,1511.364,458.973,1534.068,426.086,1547.081Z"/>
    <path id="Path_1098" data-name="Path 1098" d="M341.861,1536.536a49.961,49.961,0,0,0,32.531,15.954l.935-10.96a39.379,39.379,0,0,1-35.35-33.479h35.154v-11H339.975a39.121,39.121,0,1,1,52.051,42.306v-31.306h21.28v-11h-32.28v49.425l0,.4.86,6.016,5.6-.991a50.13,50.13,0,1,0-45.625-15.369Z"/>
    <path id="Path_1099" data-name="Path 1099" d="M263.15,1464.725l-31.585-21.744,22.607,31.7Z"/>
    <path id="Path_1100" data-name="Path 1100" d="M502.752,1474.685l22.607-31.7-31.584,21.744Z"/>
    <path id="Path_1101" data-name="Path 1101" d="M269.359,1434.87a26.457,26.457,0,0,0,13.417,15.686l.458-.888a25.492,25.492,0,0,1-12.925-15.112c-3.045-9.2-13.881-14.675-14.341-14.9l-.445.9C255.632,1420.6,266.446,1426.07,269.359,1434.87Z"/>
    <path id="Path_1102" data-name="Path 1102" d="M272.833,1432.258a26.46,26.46,0,0,0,13.416,15.687l.459-.889a25.494,25.494,0,0,1-12.926-15.112c-3.045-9.2-13.881-14.675-14.34-14.9l-.446.9C259.106,1417.99,269.92,1423.458,272.833,1432.258Z"/>
    <path id="Path_1103" data-name="Path 1103" d="M276.764,1429.959a26.465,26.465,0,0,0,13.416,15.686l.459-.889a25.491,25.491,0,0,1-12.926-15.112c-3.045-9.2-13.881-14.675-14.341-14.9l-.445.9C263.036,1415.691,273.851,1421.158,276.764,1429.959Z"/>
    <path id="Path_1104" data-name="Path 1104" d="M296.654,1400.765a2.107,2.107,0,1,0-2.107-2.107A2.107,2.107,0,0,0,296.654,1400.765Z"/>
    <path id="Path_1105" data-name="Path 1105" d="M302.237,1414.987a3.477,3.477,0,1,0-3.476-3.477A3.477,3.477,0,0,0,302.237,1414.987Z"/>
    <path id="Path_1106" data-name="Path 1106" d="M303.5,1427.945a5.9,5.9,0,1,0,5.9-5.9A5.9,5.9,0,0,0,303.5,1427.945Z"/>
    <circle id="Ellipse_120" data-name="Ellipse 120" cx="2.107" cy="2.107" r="2.107" transform="translate(458.878 1396.551)"/>
    <path id="Path_1107" data-name="Path 1107" d="M455.4,1414.987a3.477,3.477,0,1,0-3.477-3.477A3.477,3.477,0,0,0,455.4,1414.987Z"/>
    <circle id="Ellipse_121" data-name="Ellipse 121" cx="5.9" cy="5.9" r="5.9" transform="translate(442.338 1422.045)"/>
    <path id="Path_1108" data-name="Path 1108" d="M332.8,1398.043a41.861,41.861,0,0,1,.783,7.9,15.7,15.7,0,0,0,2.213,7.933,12.172,12.172,0,0,0,2.791,3.1,9.789,9.789,0,0,0,3.655,1.87l.046-.133a14.853,14.853,0,0,1-5.292-5.559,17.512,17.512,0,0,1-1.509-3.5l-.291-.919c-.077-.313-.137-.631-.2-.947a13.619,13.619,0,0,1-.291-1.924,42.744,42.744,0,0,0-1.221-7.986,21.215,21.215,0,0,0-1.448-3.79,10.732,10.732,0,0,0-2.364-3.277l-.088.109a10.5,10.5,0,0,1,2.071,3.344A20.718,20.718,0,0,1,332.8,1398.043Z"/>
    <path id="Path_1109" data-name="Path 1109" d="M336.519,1391.979l-.106.985-.152,1.037q-.135,1.041-.217,2.093a21.207,21.207,0,0,0,.831,8.424,16.935,16.935,0,0,0,4.6,7.038l.107-.091a37.412,37.412,0,0,1-1.981-3.593,25.941,25.941,0,0,1-1.392-3.768,28.313,28.313,0,0,1-1.05-7.957q.027-1.018.107-2.037l.1-1.019.062-1.081a16,16,0,0,0-.6-4.2,32.042,32.042,0,0,0-3.348-7.624l-.121.07a31.64,31.64,0,0,1,2.788,7.718A15.161,15.161,0,0,1,336.519,1391.979Z"/>
    <path id="Path_1110" data-name="Path 1110" d="M344.537,1402.345c.283.7.583,1.393.916,2.077.171.344.336.685.471,1.008a5.95,5.95,0,0,1,.376,1.009,22.17,22.17,0,0,1,.275,8.711,42.511,42.511,0,0,1-2.033,8.665l.091.042a26.771,26.771,0,0,0,2.931-8.563,19.291,19.291,0,0,0-.5-9.106,6.7,6.7,0,0,0-.445-1.081c-.169-.362-.341-.69-.515-1.012-.345-.652-.663-1.326-.966-2.006-.608-1.36-1.169-2.746-1.7-4.144q-1.619-4.186-3.009-8.467l-.1.029c.805,2.89,1.677,5.761,2.635,8.609C343.45,1399.536,343.967,1400.949,344.537,1402.345Z"/>
    <path id="Path_1111" data-name="Path 1111" d="M378.665,1373.45c-3.462,2.465-6.1,10.42-6.586,20.228l12.3-7.614C383.242,1379.905,381.171,1375.235,378.665,1373.45Z"/>
    <path id="Path_1112" data-name="Path 1112" d="M384.952,1389.969c-.067-.6-.137-1.191-.22-1.769L372,1396.077c0,.293-.014.582-.014.877,0,.341.011.674.016,1.011Z"/>
    <path id="Path_1113" data-name="Path 1113" d="M378.665,1420.459c3.84-2.735,6.674-12.221,6.674-23.505,0-.057,0-.113,0-.17l-12.873,7.95C373.42,1412.418,375.75,1418.384,378.665,1420.459Z"/>
    <path id="Path_1114" data-name="Path 1114" d="M412.2,1423.659l.936.354,3.521-9.292,8.278,2.706-.165-26.771-8.063,12.427-1.107,7.8,6.366-1.131v-11.035l-3.994,7.712.889.46,2.105-4.067v6.091l-4.19.745.831-6.13L423.79,1394l.136,22.042L409.2,1411.23l17.036-28.379-.857-.515-17.683,29.455,8.012,2.619Z"/>
    <path id="Path_1115" data-name="Path 1115" d="M483.777,1432.23v-.172c0-3.676,0-8.252,2.2-10.129a3.908,3.908,0,0,1,2.336-.9,2.952,2.952,0,0,0-1.149,1.688,5.7,5.7,0,0,0,.841,4.24,2.637,2.637,0,0,0,2.041,1.027c1.256.037,1.968-1.864,2.928-4.5,1.12-3.073,2.492-6.835,4.844-6.9a2.949,2.949,0,0,0-.255,1.75,1.641,1.641,0,0,0,.778,1.057,2.26,2.26,0,0,0,1.973.088c1.813-.671,3.488-2.962,4.6-6.284l-.949-.317c-1.476,4.429-3.43,5.454-3.993,5.663a1.3,1.3,0,0,1-1.112-.008.633.633,0,0,1-.317-.421,2.712,2.712,0,0,1,.479-1.665l.383-.588-.681-.17c-3.634-.911-5.326,3.727-6.685,7.454-.591,1.621-1.4,3.84-1.951,3.84h-.006a1.626,1.626,0,0,1-1.289-.649,4.756,4.756,0,0,1-.643-3.422c.192-.96,1.567-1.635,2.081-1.814l1.875-.653-1.96-.313a5.716,5.716,0,0,0-4.814,1.032c-2.551,2.176-2.551,7.008-2.55,10.89v.172c0,5.17-10.217,13.462-10.32,13.546l.627.778C473.521,1446.2,483.777,1437.876,483.777,1432.23Z"/>
    <path id="Path_1116" data-name="Path 1116" d="M500.335,1422.107a2.78,2.78,0,0,0-2.725,2.311c-.467,1.474-5.963,8.192-8.218,8.953l-.577.191c-2.129.7-2.84,1.047-3.611,3.709-.625,2.157-7.159,8.2-9.624,10.341l.656.754c.93-.809,9.109-7.985,9.929-10.817.66-2.282,1.057-2.412,2.961-3.037l.586-.194c2.551-.86,8.3-7.87,8.852-9.6.433-1.362.814-1.43,1.945-1.63,1.518-.267,5.822-4.209,6.446-6.206l-.955-.3C505.467,1418.3,501.4,1421.919,500.335,1422.107Z"/>
    <path id="Path_1117" data-name="Path 1117" d="M502.688,1424.46a2.776,2.776,0,0,0-2.724,2.31c-.469,1.474-5.966,8.193-8.22,8.953l-.577.192c-2.129.7-2.84,1.047-3.61,3.708-.625,2.158-7.159,8.2-9.624,10.341l.656.755c.93-.809,9.108-7.985,9.929-10.817.66-2.282,1.056-2.412,2.961-3.037l.586-.194c2.549-.86,8.3-7.87,8.852-9.6.433-1.362.814-1.429,1.944-1.629,1.519-.268,5.823-4.209,6.447-6.207l-.955-.3C507.819,1420.649,503.753,1424.272,502.688,1424.46Z"/>
  </g>
</svg>
